<?xml version="1.0" encoding="utf-8"?>
<!-- Generator: Adobe Illustrator 16.0.0, SVG Export Plug-In . SVG Version: 6.00 Build 0)  -->
<!DOCTYPE svg PUBLIC "-//W3C//DTD SVG 1.1//EN" "http://www.w3.org/Graphics/SVG/1.1/DTD/svg11.dtd">
<svg version="1.1" id="Layer_1" xmlns="http://www.w3.org/2000/svg" xmlns:xlink="http://www.w3.org/1999/xlink" x="0px" y="0px"
	 width="1418.5px" height="1704.583px" viewBox="12.583 1.417 1418.5 1704.583"
	 enable-background="new 12.583 1.417 1418.5 1704.583" xml:space="preserve">
<desc>UML diagram model</desc>
<g>
	<g id="_SMurIAZqEDKUWYXqNQB6Bg">
		
			<linearGradient id="SVGID_1_" gradientUnits="userSpaceOnUse" x1="-556.8286" y1="2577.9492" x2="-556.8286" y2="2576.9492" gradientTransform="matrix(143 0 0 -28 79710.5625 72188.7188)">
			<stop  offset="0" style="stop-color:#FFFFFF"/>
			<stop  offset="1" style="stop-color:#EFE9DE"/>
		</linearGradient>
		<rect x="12.583" y="6.167" fill="url(#SVGID_1_)" stroke="#C2B79F" width="142.916" height="28"/>
		<text transform="matrix(0.9994 0 0 1 18.5806 22.1665)" fill="#806221" font-family="'Arial-BoldMT'" font-size="13">System: aticompany</text>
		<rect x="12.583" y="30.167" fill="#FFFFFF" stroke="#0C0A0A" width="1419.167" height="1676"/>
	</g>
	<g id="_90LQ4AZZEDKDzpFPGy4Fzg">
		<ellipse fill="#FFFFFF" stroke="#000000" stroke-width="1.5" cx="219.917" cy="451.07" rx="11.07" ry="11.07"/>
		<line fill="none" stroke="#000000" stroke-width="1.5" x1="219.917" y1="462.14" x2="219.917" y2="498.118"/>
		<line fill="none" stroke="#000000" stroke-width="1.5" x1="219.917" y1="498.118" x2="232.832" y2="519.335"/>
		<line fill="none" stroke="#000000" stroke-width="1.5" x1="219.917" y1="498.118" x2="207.001" y2="519.335"/>
		<line fill="none" stroke="#000000" stroke-width="1.5" x1="232.832" y1="480.59" x2="207.001" y2="480.59"/>
		<text transform="matrix(1 0 0 1 178.2529 533.1729)" font-family="'ArialMT'" font-size="11.9926">Usuario Afiliado</text>
	</g>
	<g id="_-zVn0AZZEDKDzpFPGy4Fzg">
		<ellipse fill="#FFFFFF" stroke="#000000" stroke-width="1.5" cx="217.417" cy="780" rx="10" ry="10"/>
		<line fill="none" stroke="#000000" stroke-width="1.5" x1="217.417" y1="791" x2="217.417" y2="826"/>
		<line fill="none" stroke="#000000" stroke-width="1.5" x1="217.417" y1="826" x2="230.417" y2="846"/>
		<line fill="none" stroke="#000000" stroke-width="1.5" x1="217.417" y1="826" x2="204.417" y2="846"/>
		<line fill="none" stroke="#000000" stroke-width="1.5" x1="230.417" y1="809" x2="204.417" y2="809"/>
		<text transform="matrix(1 0 0 1 177.3184 861)" font-family="'ArialMT'" font-size="13">Administrador</text>
	</g>
	<g id="__vcqwAZZEDKDzpFPGy4Fzg">
		<ellipse fill="#FFFFFF" stroke="#000000" stroke-width="1.5" cx="215.417" cy="620" rx="10" ry="10"/>
		<line fill="none" stroke="#000000" stroke-width="1.5" x1="215.417" y1="630" x2="215.417" y2="664"/>
		<line fill="none" stroke="#000000" stroke-width="1.5" x1="215.417" y1="664" x2="228.417" y2="685"/>
		<line fill="none" stroke="#000000" stroke-width="1.5" x1="215.417" y1="664" x2="202.417" y2="685"/>
		<line fill="none" stroke="#000000" stroke-width="1.5" x1="228.417" y1="647" x2="202.417" y2="647"/>
		<text transform="matrix(1 0 0 1 187.9565 700)" font-family="'ArialMT'" font-size="13">Operador</text>
	</g>
	<g id="_DYwTwAZaEDKDzpFPGy4Fzg">
		
			<linearGradient id="SVGID_2_" gradientUnits="userSpaceOnUse" x1="-555.3721" y1="2567.2715" x2="-555.3721" y2="2566.2715" gradientTransform="matrix(300 0 0 -80 167217.125 205446.6875)">
			<stop  offset="0" style="stop-color:#FFFFFF"/>
			<stop  offset="1" style="stop-color:#E5E5E5"/>
		</linearGradient>
		<ellipse fill="url(#SVGID_2_)" stroke="#CCCCCC" cx="605.417" cy="105" rx="150" ry="40"/>
		<text transform="matrix(1 0 0 1 575.7446 90)" fill="#033656" font-family="'Arial-BoldMT'" font-size="12">Autenticar</text>
		<line fill="none" stroke="#CCCCCC" x1="500.417" y1="95" x2="710.417" y2="95"/>
		<text transform="matrix(1 0 0 1 531.7075 117)" font-family="'ArialMT'" font-size="13">No Recuerda Contraseña</text>
	</g>
	<g id="_Efy0UAZaEDKDzpFPGy4Fzg">
		
			<linearGradient id="SVGID_3_" gradientUnits="userSpaceOnUse" x1="-558.1167" y1="2569.7441" x2="-558.1167" y2="2568.7441" gradientTransform="matrix(100 0 0 -56 56742.0625 143990.6875)">
			<stop  offset="0" style="stop-color:#FFFFFF"/>
			<stop  offset="1" style="stop-color:#E5E5E5"/>
		</linearGradient>
		<ellipse fill="url(#SVGID_3_)" stroke="#CCCCCC" cx="930.417" cy="113" rx="50" ry="28"/>
		<text transform="matrix(1 0 0 1 904.0723 115)" fill="#033656" font-family="'Arial-BoldMT'" font-size="12">Registrar</text>
	</g>
	<g id="_GlTIQAZaEDKDzpFPGy4Fzg">
		
			<linearGradient id="SVGID_4_" gradientUnits="userSpaceOnUse" x1="-555.8716" y1="2567.2715" x2="-555.8716" y2="2566.2715" gradientTransform="matrix(220 0 0 -80 123222.125 205956.6875)">
			<stop  offset="0" style="stop-color:#FFFFFF"/>
			<stop  offset="1" style="stop-color:#E5E5E5"/>
		</linearGradient>
		<ellipse fill="url(#SVGID_4_)" stroke="#CCCCCC" cx="930.417" cy="615" rx="110" ry="40"/>
		<text transform="matrix(1 0 0 1 885.0645 600)" fill="#033656" font-family="'Arial-BoldMT'" font-size="12">Buscar Paquete</text>
		<line fill="none" stroke="#CCCCCC" x1="853.417" y1="605" x2="1007.417" y2="605"/>
		<text transform="matrix(1 0 0 1 870.4316 627)" font-family="'ArialMT'" font-size="13">Seleccionar Paquete</text>
	</g>
	<g id="_pGsfwAZaEDKDzpFPGy4Fzg">
		
			<linearGradient id="SVGID_5_" gradientUnits="userSpaceOnUse" x1="-555.9419" y1="2569.7451" x2="-555.9419" y2="2568.7451" gradientTransform="matrix(212 0 0 -56 118784.125 144370.6875)">
			<stop  offset="0" style="stop-color:#FFFFFF"/>
			<stop  offset="1" style="stop-color:#E5E5E5"/>
		</linearGradient>
		<ellipse fill="url(#SVGID_5_)" stroke="#CCCCCC" cx="924.417" cy="493" rx="106" ry="28"/>
		<text transform="matrix(1 0 0 1 867.916 490)" fill="#033656" font-family="'Arial-BoldMT'" font-size="12">Observar Paquetes</text>
		<text transform="matrix(1 0 0 1 977.3047 490)" fill="#033656" font-family="'Arial-BoldMT'" font-size="13"> </text>
		<text transform="matrix(1 0 0 1 892.4063 503)" fill="#033656" font-family="'Arial-BoldMT'" font-size="12">Pendientes</text>
		<line fill="none" stroke="#CCCCCC" x1="850.417" y1="508" x2="997.417" y2="508"/>
		<text transform="matrix(1 0 0 1 864.4316 530)" font-family="'ArialMT'" font-size="13">Seleccionar Paquete</text>
	</g>
	<g id="_t72Q0AZaEDKDzpFPGy4Fzg">
		
			<linearGradient id="SVGID_6_" gradientUnits="userSpaceOnUse" x1="-555.9419" y1="2568.0947" x2="-555.9419" y2="2567.0361" gradientTransform="matrix(212 0 0 -70 118788.125 180461.6875)">
			<stop  offset="0" style="stop-color:#FFFFFF"/>
			<stop  offset="1" style="stop-color:#E5E5E5"/>
		</linearGradient>
		<ellipse fill="url(#SVGID_6_)" stroke="#CCCCCC" cx="928.417" cy="732.08" rx="106" ry="37.08"/>
		<text transform="matrix(1 0 0 1 865.9199 720)" fill="#033656" font-family="'Arial-BoldMT'" font-size="12">Observar Historial de</text>
		<text transform="matrix(1 0 0 1 987.3027 720)" fill="#033656" font-family="'Arial-BoldMT'" font-size="13"> </text>
		<text transform="matrix(1 0 0 1 901.7383 733)" fill="#033656" font-family="'Arial-BoldMT'" font-size="12">Paquetes</text>
		<line fill="none" stroke="#CCCCCC" x1="854.417" y1="738" x2="1001.417" y2="738"/>
		<text transform="matrix(1 0 0 1 868.4316 760)" font-family="'ArialMT'" font-size="13">Seleccionar Paquete</text>
	</g>
	<g id="_6TkwkAZcEDKDzpFPGy4Fzg">
		
			<linearGradient id="SVGID_7_" gradientUnits="userSpaceOnUse" x1="-557.8115" y1="2569.7451" x2="-557.8115" y2="2568.7451" gradientTransform="matrix(108 0 0 -56 61171.0625 144720.6875)">
			<stop  offset="0" style="stop-color:#FFFFFF"/>
			<stop  offset="1" style="stop-color:#E5E5E5"/>
		</linearGradient>
		<ellipse fill="url(#SVGID_7_)" stroke="#CCCCCC" cx="927.417" cy="843" rx="54" ry="28"/>
		<text transform="matrix(1 0 0 1 886.7324 845)" fill="#033656" font-family="'Arial-BoldMT'" font-size="12">Crear Paquete</text>
	</g>
	<g id="_yBtLkAZdEDKDzpFPGy4Fzg">
		
			<linearGradient id="SVGID_8_" gradientUnits="userSpaceOnUse" x1="-556.6392" y1="2569.7451" x2="-556.6392" y2="2568.7451" gradientTransform="matrix(156 0 0 -56 87761.125 144090.6875)">
			<stop  offset="0" style="stop-color:#FFFFFF"/>
			<stop  offset="1" style="stop-color:#E5E5E5"/>
		</linearGradient>
		<ellipse fill="url(#SVGID_8_)" stroke="#CCCCCC" cx="925.417" cy="213" rx="78" ry="28"/>
		<text transform="matrix(1 0 0 1 861.0605 215)" fill="#033656" font-family="'Arial-BoldMT'" font-size="12">Recuperar Contraseña</text>
	</g>
	<g id="_2g4FkAZdEDKDzpFPGy4Fzg">
		
			<linearGradient id="SVGID_9_" gradientUnits="userSpaceOnUse" x1="-556.0586" y1="2568.0957" x2="-556.0586" y2="2567.0957" gradientTransform="matrix(200 0 0 -70 112477.125 180231.6875)">
			<stop  offset="0" style="stop-color:#FFFFFF"/>
			<stop  offset="1" style="stop-color:#E5E5E5"/>
		</linearGradient>
		<ellipse fill="url(#SVGID_9_)" stroke="#CCCCCC" cx="1265.417" cy="500" rx="100" ry="35"/>
		<text transform="matrix(1 0 0 1 1212.2559 496)" fill="#033656" font-family="'Arial-BoldMT'" font-size="12">Listar Detalles del</text>
		<text transform="matrix(1 0 0 1 1314.9648 496)" fill="#033656" font-family="'Arial-BoldMT'" font-size="13"> </text>
		<text transform="matrix(1 0 0 1 1242.0762 509)" fill="#033656" font-family="'Arial-BoldMT'" font-size="12">Paquete</text>
	</g>
	<g id="_18KZgAZeEDKDzpFPGy4Fzg">
		
			<linearGradient id="SVGID_10_" gradientUnits="userSpaceOnUse" x1="-555.3452" y1="2567.2715" x2="-555.3452" y2="2566.2715" gradientTransform="matrix(306 0 0 -80 170904 206306.6875)">
			<stop  offset="0" style="stop-color:#FFFFFF"/>
			<stop  offset="1" style="stop-color:#E5E5E5"/>
		</linearGradient>
		<ellipse fill="url(#SVGID_10_)" stroke="#CCCCCC" cx="968.417" cy="965" rx="153" ry="40"/>
		<text transform="matrix(1 0 0 1 911.916 950)" fill="#033656" font-family="'Arial-BoldMT'" font-size="12">Observar Paquetes</text>
		<text transform="matrix(1 0 0 1 1021.3047 950)" fill="#033656" font-family="'Arial-BoldMT'" font-size="13"> </text>
		<text transform="matrix(1 0 0 1 892.7285 963)" fill="#033656" font-family="'Arial-BoldMT'" font-size="12">Pendientes Por Recepcion</text>
		<line fill="none" stroke="#CCCCCC" x1="861.417" y1="968" x2="1074.417" y2="968"/>
		<text transform="matrix(1 0 0 1 908.4316 990)" font-family="'ArialMT'" font-size="13">Seleccionar Paquete</text>
	</g>
	<g id="_H-IKIAZfEDKDzpFPGy4Fzg">
		
			<linearGradient id="SVGID_11_" gradientUnits="userSpaceOnUse" x1="-556.313" y1="2569.7441" x2="-556.313" y2="2568.5654" gradientTransform="matrix(178 0 0 -56 99624.125 145040.6875)">
			<stop  offset="0" style="stop-color:#FFFFFF"/>
			<stop  offset="1" style="stop-color:#E5E5E5"/>
		</linearGradient>
		<ellipse fill="url(#SVGID_11_)" stroke="#CCCCCC" cx="600.417" cy="1168" rx="89" ry="33"/>
		<text transform="matrix(1 0 0 1 525.7271 1160)" fill="#033656" font-family="'Arial-BoldMT'" font-size="12">Buscar Cualquier Paquete</text>
		<line fill="none" stroke="#CCCCCC" x1="538.417" y1="1165" x2="662.417" y2="1165"/>
		<text transform="matrix(1 0 0 1 540.4312 1187)" font-family="'ArialMT'" font-size="13">Seleccionar Paquete</text>
	</g>
	<g id="_K7LxIAZfEDKDzpFPGy4Fzg">
		
			<linearGradient id="SVGID_12_" gradientUnits="userSpaceOnUse" x1="-557.2632" y1="2569.7803" x2="-557.2632" y2="2568.7803" gradientTransform="matrix(118 0 0 -56 66712.0625 145050.6875)">
			<stop  offset="0" style="stop-color:#FFFFFF"/>
			<stop  offset="1" style="stop-color:#E5E5E5"/>
		</linearGradient>
		<ellipse fill="url(#SVGID_12_)" stroke="#CCCCCC" cx="954.963" cy="1171" rx="59" ry="28"/>
		<text transform="matrix(1 0 0 1 909.9473 1173)" fill="#033656" font-family="'Arial-BoldMT'" font-size="12">Cambiar estado</text>
	</g>
	<g id="_com1IAZfEDKDzpFPGy4Fzg">
		
			<linearGradient id="SVGID_13_" gradientUnits="userSpaceOnUse" x1="-555.9604" y1="2568.0957" x2="-555.9604" y2="2567.0957" gradientTransform="matrix(210 0 0 -70 117357.125 181251.6875)">
			<stop  offset="0" style="stop-color:#FFFFFF"/>
			<stop  offset="1" style="stop-color:#E5E5E5"/>
		</linearGradient>
		<ellipse fill="url(#SVGID_13_)" stroke="#CCCCCC" cx="605.417" cy="1520" rx="105" ry="35"/>
		<text transform="matrix(1 0 0 1 560.5103 1516)" fill="#033656" font-family="'Arial-BoldMT'" font-size="12">Cambiar Tarifas</text>
	</g>
	<g id="_bSGqUAZhEDKDzpFPGy4Fzg">
		
			<linearGradient id="SVGID_14_" gradientUnits="userSpaceOnUse" x1="-555.4194" y1="2566.6299" x2="-555.4194" y2="2565.6299" gradientTransform="matrix(290 0 0 -90 161677.125 231171.6875)">
			<stop  offset="0" style="stop-color:#FFFFFF"/>
			<stop  offset="1" style="stop-color:#E5E5E5"/>
		</linearGradient>
		<ellipse fill="url(#SVGID_14_)" stroke="#CCCCCC" cx="605.417" cy="220" rx="145" ry="45"/>
		<text transform="matrix(1 0 0 1 531.9214 208)" fill="#033656" font-family="'Arial-BoldMT'" font-size="12">Observar Información De</text>
		<text transform="matrix(1 0 0 1 675.3003 208)" fill="#033656" font-family="'Arial-BoldMT'" font-size="13"> </text>
		<text transform="matrix(1 0 0 1 567.7437 221)" fill="#033656" font-family="'Arial-BoldMT'" font-size="12">La Compañia</text>
	</g>
	<g id="_k5eNMAZhEDKDzpFPGy4Fzg">
		
			<linearGradient id="SVGID_15_" gradientUnits="userSpaceOnUse" x1="-555.9419" y1="2568.0957" x2="-555.9419" y2="2567.0957" gradientTransform="matrix(212 0 0 -70 118462.125 180051.6875)">
			<stop  offset="0" style="stop-color:#FFFFFF"/>
			<stop  offset="1" style="stop-color:#E5E5E5"/>
		</linearGradient>
		<ellipse fill="url(#SVGID_15_)" stroke="#CCCCCC" cx="602.417" cy="320" rx="106" ry="35"/>
		<text transform="matrix(1 0 0 1 532.5864 316)" fill="#033656" font-family="'Arial-BoldMT'" font-size="12">Manejar Calculadora De</text>
		<text transform="matrix(1 0 0 1 668.6353 316)" fill="#033656" font-family="'Arial-BoldMT'" font-size="13"> </text>
		<text transform="matrix(1 0 0 1 582.7437 329)" fill="#033656" font-family="'Arial-BoldMT'" font-size="12">Envíos</text>
	</g>
	<g id="_NYcWYAZiEDKDzpFPGy4Fzg">
		
			<linearGradient id="SVGID_16_" gradientUnits="userSpaceOnUse" x1="-555.8721" y1="2568.0957" x2="-555.8721" y2="2567.0957" gradientTransform="matrix(220 0 0 -70 122897.125 181136.6875)">
			<stop  offset="0" style="stop-color:#FFFFFF"/>
			<stop  offset="1" style="stop-color:#E5E5E5"/>
		</linearGradient>
		<ellipse fill="url(#SVGID_16_)" stroke="#CCCCCC" cx="605.417" cy="1405" rx="110" ry="35"/>
		<text transform="matrix(1 0 0 1 539.5913 1401)" fill="#033656" font-family="'Arial-BoldMT'" font-size="12">Modificar Permisos de</text>
		<text transform="matrix(1 0 0 1 667.6304 1401)" fill="#033656" font-family="'Arial-BoldMT'" font-size="13"> </text>
		<text transform="matrix(1 0 0 1 579.7407 1414)" fill="#033656" font-family="'Arial-BoldMT'" font-size="12">Usuarios</text>
	</g>
	<g id="_HAL-YAZjEDKDzpFPGy4Fzg">
		
			<linearGradient id="SVGID_17_" gradientUnits="userSpaceOnUse" x1="-557.3198" y1="2569.7441" x2="-557.3198" y2="2568.7441" gradientTransform="matrix(124 0 0 -56 69711.0625 144280.6875)">
			<stop  offset="0" style="stop-color:#FFFFFF"/>
			<stop  offset="1" style="stop-color:#E5E5E5"/>
		</linearGradient>
		<ellipse fill="url(#SVGID_17_)" stroke="#CCCCCC" cx="603.417" cy="403" rx="62" ry="28"/>
		<text transform="matrix(1 0 0 1 556.1694 405)" fill="#033656" font-family="'Arial-BoldMT'" font-size="12">Observar Tarifas</text>
	</g>
	<g id="_M7h7cAZjEDKDzpFPGy4Fzg">
		<ellipse fill="#FFFFFF" stroke="#000000" stroke-width="1.5" cx="105.417" cy="230" rx="10" ry="10"/>
		<line fill="none" stroke="#000000" stroke-width="1.5" x1="105.417" y1="240" x2="105.417" y2="274"/>
		<line fill="none" stroke="#000000" stroke-width="1.5" x1="105.417" y1="274" x2="118.417" y2="295"/>
		<line fill="none" stroke="#000000" stroke-width="1.5" x1="105.417" y1="274" x2="92.417" y2="295"/>
		<line fill="none" stroke="#000000" stroke-width="1.5" x1="118.417" y1="257" x2="92.417" y2="257"/>
		<text transform="matrix(1 0 0 1 83.019 310)" font-family="'ArialMT'" font-size="13">Usuario</text>
	</g>
	<g id="_cgnkgAZkEDKDzpFPGy4Fzg">
		
			<linearGradient id="SVGID_18_" gradientUnits="userSpaceOnUse" x1="-556.7441" y1="2566.0771" x2="-556.7441" y2="2565.2666" gradientTransform="matrix(150 0 0 -100 84452.0625 257966.6875)">
			<stop  offset="0" style="stop-color:#FFFFFF"/>
			<stop  offset="1" style="stop-color:#E5E5E5"/>
		</linearGradient>
		<ellipse fill="url(#SVGID_18_)" stroke="#CCCCCC" cx="940.417" cy="1399.5" rx="75" ry="40.5"/>
		<text transform="matrix(1 0 0 1 896.0664 1384)" fill="#033656" font-family="'Arial-BoldMT'" font-size="12">Buscar Usuario</text>
		<line fill="none" stroke="#CCCCCC" x1="888.417" y1="1389" x2="992.417" y2="1389"/>
		<text transform="matrix(1 0 0 1 882.25 1411)" font-family="'ArialMT'" font-size="13">Seleccionar Usuario</text>
	</g>
	<g id="_prSPAAZkEDKDzpFPGy4Fzg">
		
			<linearGradient id="SVGID_19_" gradientUnits="userSpaceOnUse" x1="-556.1665" y1="2568.0957" x2="-556.1665" y2="2567.0957" gradientTransform="matrix(190 0 0 -70 106937.125 181136.6875)">
			<stop  offset="0" style="stop-color:#FFFFFF"/>
			<stop  offset="1" style="stop-color:#E5E5E5"/>
		</linearGradient>
		<ellipse fill="url(#SVGID_19_)" stroke="#CCCCCC" cx="1265.417" cy="1405" rx="95" ry="35"/>
		<text transform="matrix(1 0 0 1 1212.2559 1401)" fill="#033656" font-family="'Arial-BoldMT'" font-size="12">Listar Detalles del</text>
		<text transform="matrix(1 0 0 1 1314.9648 1401)" fill="#033656" font-family="'Arial-BoldMT'" font-size="13"> </text>
		<text transform="matrix(1 0 0 1 1243.0781 1414)" fill="#033656" font-family="'Arial-BoldMT'" font-size="12">Usuario</text>
	</g>
	<g id="_Dsc2YgZbEDKDzpFPGy4Fzg">
		<line fill="none" stroke="#000000" x1="280.417" y1="485" x2="802.917" y2="491"/>
	</g>
	<g id="_D6hHkAZbEDKDzpFPGy4Fzg">
		<line fill="none" stroke="#000000" x1="280.417" y1="495" x2="785.417" y2="585"/>
	</g>
	<g id="_EJgl0gZbEDKDzpFPGy4Fzg">
		<line fill="none" stroke="#000000" x1="280.417" y1="505" x2="755.417" y2="675"/>
	</g>
	<g id="_z1DYgAZdEDKDzpFPGy4Fzg">
		<line fill="none" stroke="#000000" stroke-dasharray="10,5" x1="853.698" y1="201.976" x2="708.417" y2="134.923"/>
		<g transform="translate(720,142)">
			<g transform="rotate(-72)">
				<polyline fill="none" stroke="#000000" points="-4.304,-2.931 3.151,-13.203 8.426,-4.021 				"/>
			</g>
		</g>
	</g>
	<g id="_53BiAAZdEDKDzpFPGy4Fzg">
		<line fill="none" stroke="#000000" stroke-dasharray="10,5" x1="1165.417" y1="497" x2="1029.417" y2="495"/>
		<g transform="translate(1026,492)">
			<g transform="rotate(-89)">
				<polyline fill="none" stroke="#000000" points="-6.94,11.468 -2.94,3.469 1.059,11.469 				"/>
			</g>
		</g>
	</g>
	<g id="_7sXTAAZdEDKDzpFPGy4Fzg">
		<line fill="none" stroke="#000000" stroke-dasharray="10,5" x1="1260.417" y1="535" x2="1235.417" y2="735"/>
	</g>
	<g id="_-OppkAZdEDKDzpFPGy4Fzg">
		<line fill="none" stroke="#000000" stroke-dasharray="10,5" x1="1256.417" y1="535" x2="1235.417" y2="615"/>
	</g>
	<g id="_MGpUIQZeEDKDzpFPGy4Fzg">
		<line fill="none" stroke="#000000" x1="265.417" y1="668" x2="805.417" y2="815"/>
	</g>
	<g id="_JuDPogZfEDKDzpFPGy4Fzg">
		<line fill="none" stroke="#000000" x1="265.417" y1="676" x2="795.417" y2="905"/>
	</g>
	<g id="_KOylMgZfEDKDzpFPGy4Fzg">
		<line fill="none" stroke="#000000" x1="252.417" y1="705" x2="578.417" y2="1135"/>
	</g>
	<g id="_MX4YoAZfEDKDzpFPGy4Fzg">
		<line fill="none" stroke="#000000" stroke-dasharray="10,5" x1="1265.417" y1="535" x2="1265.417" y2="1305"/>
	</g>
	<g id="_OMdUoAZfEDKDzpFPGy4Fzg">
		<line fill="none" stroke="#000000" stroke-dasharray="10,5" x1="897.048" y1="1168.375" x2="693.318" y2="1167.941"/>
		<g transform="translate(686,1162)">
			<g transform="rotate(-88)">
				<polyline fill="none" stroke="#000000" points="-9.397,16.657 -5.682,7.521 -1.397,16.475 				"/>
			</g>
		</g>
	</g>
	<g id="_eHrbMQZfEDKDzpFPGy4Fzg">
		<line fill="none" stroke="#000000" x1="216.417" y1="865" x2="215.417" y2="1525"/>
	</g>
	<g id="_AGvsQAZhEDKDzpFPGy4Fzg">
		<line fill="none" stroke="#000000" stroke-dasharray="10,5" x1="755.417" y1="108" x2="880.417" y2="111"/>
		<g transform="translate(877,108)">
			<g transform="rotate(91)">
				<polyline fill="none" stroke="#000000" points="-1.06,4.532 2.94,-3.469 6.94,4.531 				"/>
			</g>
		</g>
	</g>
	<g id="_Gbj5QAZhEDKDzpFPGy4Fzg">
		<line fill="none" stroke="#000000" stroke-dasharray="10,5" x1="958.989" y1="1143" x2="959.063" y2="1003.921"/>
		<g transform="translate(957,1002)">
			<g transform="rotate(11)">
				<polyline fill="none" stroke="#000000" points="0.058,9.878 2.391,1.493 7.674,8.435 				"/>
			</g>
		</g>
	</g>
	<g id="_TfsBcQZiEDKDzpFPGy4Fzg">
		<line fill="none" stroke="#000000" x1="225.417" y1="865" x2="315.417" y2="1405"/>
	</g>
	<g id="_y2mkggZjEDKDzpFPGy4Fzg">
		<line fill="none" stroke="#000000" x1="155.417" y1="249" x2="480.417" y2="145"/>
	</g>
	<g id="_zPeXgAZjEDKDzpFPGy4Fzg">
		<line fill="none" stroke="#000000" x1="155.417" y1="260" x2="460.417" y2="233"/>
	</g>
	<g id="_zqUgcgZjEDKDzpFPGy4Fzg">
		<line fill="none" stroke="#000000" x1="155.417" y1="270" x2="496.417" y2="308"/>
	</g>
	<g id="_3MiC8AZjEDKDzpFPGy4Fzg">
		<line fill="none" stroke="#000000" x1="165.521" y1="492.54" x2="105.313" y2="492.461"/>
	</g>
	<g id="_4R9Z8AZjEDKDzpFPGy4Fzg">
	</g>
	<g id="_XJXzAQZkEDKDzpFPGy4Fzg">
		<line fill="none" stroke="#000000" x1="155.417" y1="278" x2="541.417" y2="385"/>
	</g>
	<g id="_sb1EAAZkEDKDzpFPGy4Fzg">
		<line fill="none" stroke="#000000" stroke-dasharray="10,5" x1="1170.417" y1="1405" x2="1015.417" y2="1405"/>
		<g transform="translate(1012,1402)">
			<g transform="rotate(-90)">
				<polyline fill="none" stroke="#000000" points="-7,11.417 -3,3.417 1,11.417 				"/>
			</g>
		</g>
	</g>
	<g id="_ukc9YAZkEDKDzpFPGy4Fzg">
		<line fill="none" stroke="#000000" stroke-dasharray="10,5" x1="715.417" y1="1405" x2="865.417" y2="1405"/>
		<g transform="translate(862,1402)">
			<g transform="rotate(90)">
				<polyline fill="none" stroke="#000000" points="-1,4.583 3,-3.417 7,4.583 				"/>
			</g>
		</g>
	</g>
	<g id="_eHrbMQZfEDKDzpFPGy4Fzg_1_">
		<line fill="none" stroke="#000000" x1="215.417" y1="1525" x2="365.417" y2="1525"/>
	</g>
	<g id="_TfsBcQZiEDKDzpFPGy4Fzg_1_">
		<line fill="none" stroke="#000000" x1="315.417" y1="1405" x2="495.417" y2="1405"/>
	</g>
	<g id="_MX4YoAZfEDKDzpFPGy4Fzg_1_">
		<line fill="none" stroke="#000000" stroke-dasharray="10,5" x1="1265.417" y1="1305" x2="635.417" y2="1305"/>
	</g>
	<g id="_4R9Z8AZjEDKDzpFPGy4Fzg_1_">
		<line fill="none" stroke="#000000" x1="105.417" y1="825.834" x2="105.417" y2="315"/>
		<g transform="translate(102,312)">
			<g transform="rotate(0)">
				<polygon fill="#FFFFFF" stroke="#000000" points="-2.583,13 3.417,3 9.417,13 				"/>
			</g>
		</g>
	</g>
	<g id="_eHrbMQZfEDKDzpFPGy4Fzg_2_">
		<line fill="none" stroke="#000000" x1="365.417" y1="1525" x2="395.417" y2="1525"/>
	</g>
	<g id="_eHrbMQZfEDKDzpFPGy4Fzg_3_">
		<line fill="none" stroke="#000000" x1="395.417" y1="1525" x2="415.417" y2="1525"/>
	</g>
	<g id="_eHrbMQZfEDKDzpFPGy4Fzg_4_">
		<line fill="none" stroke="#000000" x1="415.417" y1="1525" x2="445.417" y2="1525"/>
	</g>
	<g id="_eHrbMQZfEDKDzpFPGy4Fzg_5_">
		<line fill="none" stroke="#000000" x1="445.417" y1="1525" x2="500.417" y2="1523"/>
	</g>
	<g id="_7sXTAAZdEDKDzpFPGy4Fzg_1_">
		<line fill="none" stroke="#000000" stroke-dasharray="10,5" x1="1235.417" y1="735" x2="1036.708" y2="732"/>
		<g transform="translate(1030,729)">
			<g transform="rotate(-89)">
				<polyline fill="none" stroke="#000000" points="-6.885,14.629 -2.883,6.759 1.114,14.626 				"/>
			</g>
		</g>
	</g>
	<g id="_-OppkAZdEDKDzpFPGy4Fzg_1_">
		<line fill="none" stroke="#000000" stroke-dasharray="10,5" x1="1235.417" y1="615" x2="1040.417" y2="615"/>
		<g transform="translate(1037,612)">
			<g transform="rotate(-90)">
				<polyline fill="none" stroke="#000000" points="-7,11.417 -3,3.417 1,11.417 				"/>
			</g>
		</g>
	</g>
	<g id="_MX4YoAZfEDKDzpFPGy4Fzg_2_">
		<line fill="none" stroke="#000000" stroke-dasharray="10,5" x1="635.417" y1="1305" x2="610.24" y2="1205.161"/>
		<g transform="translate(603,1187)">
			<g transform="rotate(-14)">
				<polyline fill="none" stroke="#000000" points="-1.459,28.005 2.54,20.004 6.54,28.004 				"/>
			</g>
		</g>
	</g>
	<g id="_D6hHkAZbEDKDzpFPGy4Fzg_1_">
		<line fill="none" stroke="#000000" x1="785.417" y1="585" x2="820.417" y2="592"/>
	</g>
	<g id="_EJgl0gZbEDKDzpFPGy4Fzg_1_">
		<line fill="none" stroke="#000000" x1="785.417" y1="685" x2="822.417" y2="697"/>
	</g>
	<g id="_EJgl0gZbEDKDzpFPGy4Fzg_2_">
		<line fill="none" stroke="#000000" x1="755.417" y1="675" x2="785.417" y2="685"/>
	</g>
	<g id="_JuDPogZfEDKDzpFPGy4Fzg_1_">
		<line fill="none" stroke="#000000" x1="795.417" y1="905" x2="851.417" y2="925"/>
	</g>
	<g id="_MGpUIQZeEDKDzpFPGy4Fzg_1_">
		<line fill="none" stroke="#000000" x1="805.417" y1="815" x2="873.417" y2="830"/>
	</g>
	<text transform="matrix(1 0 0 1 797.4161 166.0005)" font-family="'ArialMT'" font-size="13">« extend »</text>
	<text transform="matrix(1 0 0 1 1071.4161 484.0005)" font-family="'ArialMT'" font-size="13">« extend »</text>
	<text transform="matrix(1 0 0 1 1071.4161 725.0005)" font-family="'ArialMT'" font-size="13">« extend »</text>
	<text transform="matrix(1 0 0 1 1077.4161 605.0005)" font-family="'ArialMT'" font-size="13">« extend »</text>
	<text transform="matrix(1 0 0 1 1200.4161 905.0005)" font-family="'ArialMT'" font-size="13">« extend »</text>
	<text transform="matrix(1 0 0 1 773.4161 1160.0005)" font-family="'ArialMT'" font-size="13">« extend »</text>
	<text transform="matrix(1 0 0 1 792.4161 98.0005)" font-family="'ArialMT'" font-size="13">« include »</text>
	<text transform="matrix(1 0 0 1 971.0841 1088.0005)" font-family="'ArialMT'" font-size="13">« extend »</text>
	<text transform="matrix(1 0 0 1 1067.4161 1393.0005)" font-family="'ArialMT'" font-size="13">« extend »</text>
	<text transform="matrix(1 0 0 1 764.4161 1393.0005)" font-family="'ArialMT'" font-size="13">« include »</text>
	<g id="_3MiC8AZjEDKDzpFPGy4Fzg_2_">
		<line fill="none" stroke="#000000" x1="165.625" y1="826" x2="105.417" y2="825.922"/>
	</g>
	<g id="_3MiC8AZjEDKDzpFPGy4Fzg_3_">
		<line fill="none" stroke="#000000" x1="165.521" y1="665.04" x2="105.313" y2="664.961"/>
	</g>
</g>
</svg>
