<?xml version="1.0" encoding="utf-8"?>
<!-- Generator: Adobe Illustrator 16.0.0, SVG Export Plug-In . SVG Version: 6.00 Build 0)  -->
<!DOCTYPE svg PUBLIC "-//W3C//DTD SVG 1.1//EN" "http://www.w3.org/Graphics/SVG/1.1/DTD/svg11.dtd">
<svg version="1.1" id="Layer_1" xmlns="http://www.w3.org/2000/svg" xmlns:xlink="http://www.w3.org/1999/xlink" x="0px" y="0px"
	 width="1422px" height="1694px" viewBox="0 0 1422 1694" enable-background="new 0 0 1422 1694" xml:space="preserve">
<desc>UML diagram model</desc>
<g id="_SMurIAZqEDKUWYXqNQB6Bg">
	
		<linearGradient id="SVGID_1_" gradientUnits="userSpaceOnUse" x1="-556.9023" y1="2578.0977" x2="-556.9023" y2="2577.0977" gradientTransform="matrix(143 0 0 -28 79710.5625 72188.7188)">
		<stop  offset="0" style="stop-color:#FFFFFF"/>
		<stop  offset="1" style="stop-color:#EFE9DE"/>
	</linearGradient>
	<rect x="2" y="2" fill="url(#SVGID_1_)" stroke="#C2B79F" width="143" height="28"/>
	<text transform="matrix(1 0 0 1 8 18)" fill="#806221" font-family="'Arial-BoldMT'" font-size="13">System: aticompany</text>
	<rect x="2" y="18" fill="#FFFFFF" stroke="#FFFFFF" width="1420" height="1676"/>
</g>
<g id="_90LQ4AZZEDKDzpFPGy4Fzg">
	<ellipse fill="#FFFFFF" stroke="#000000" stroke-width="1.5" cx="240" cy="469" rx="12" ry="12"/>
	<line fill="none" stroke="#000000" stroke-width="1.5" x1="240" y1="481" x2="240" y2="520"/>
	<line fill="none" stroke="#000000" stroke-width="1.5" x1="240" y1="520" x2="254" y2="543"/>
	<line fill="none" stroke="#000000" stroke-width="1.5" x1="240" y1="520" x2="226" y2="543"/>
	<line fill="none" stroke="#000000" stroke-width="1.5" x1="254" y1="501" x2="226" y2="501"/>
	<text transform="matrix(1 0 0 1 194.8364 558)" font-family="'ArialMT'" font-size="13">Usuario Afiliado</text>
</g>
<g id="_-zVn0AZZEDKDzpFPGy4Fzg">
	<ellipse fill="#FFFFFF" stroke="#000000" stroke-width="1.5" cx="234" cy="827" rx="10" ry="10"/>
	<line fill="none" stroke="#000000" stroke-width="1.5" x1="234" y1="838" x2="234" y2="873"/>
	<line fill="none" stroke="#000000" stroke-width="1.5" x1="234" y1="873" x2="247" y2="893"/>
	<line fill="none" stroke="#000000" stroke-width="1.5" x1="234" y1="873" x2="221" y2="893"/>
	<line fill="none" stroke="#000000" stroke-width="1.5" x1="247" y1="856" x2="221" y2="856"/>
	<text transform="matrix(1 0 0 1 193.9019 908)" font-family="'ArialMT'" font-size="13">Administrador</text>
</g>
<g id="_DYwTwAZaEDKDzpFPGy4Fzg">
	
		<linearGradient id="SVGID_2_" gradientUnits="userSpaceOnUse" x1="-555.3838" y1="2567.3086" x2="-555.3838" y2="2566.3086" gradientTransform="matrix(300 0 0 -80 167217.125 205446.6875)">
		<stop  offset="0" style="stop-color:#FFFFFF"/>
		<stop  offset="1" style="stop-color:#E5E5E5"/>
	</linearGradient>
	<ellipse fill="url(#SVGID_2_)" stroke="#CCCCCC" cx="602" cy="102" rx="150" ry="40"/>
	<text transform="matrix(1 0 0 1 572.3281 87)" fill="#033656" font-family="'Arial-BoldMT'" font-size="12">Autenticar</text>
	<line fill="none" stroke="#CCCCCC" x1="497" y1="92" x2="707" y2="92"/>
	<text transform="matrix(1 0 0 1 528.291 114)" font-family="'ArialMT'" font-size="13">No Recuerda Contraseña</text>
</g>
<g id="_Efy0UAZaEDKDzpFPGy4Fzg">
	
		<linearGradient id="SVGID_3_" gradientUnits="userSpaceOnUse" x1="-558.1509" y1="2569.7979" x2="-558.1509" y2="2568.7979" gradientTransform="matrix(100 0 0 -56 56722.0625 144000.6875)">
		<stop  offset="0" style="stop-color:#FFFFFF"/>
		<stop  offset="1" style="stop-color:#E5E5E5"/>
	</linearGradient>
	<ellipse fill="url(#SVGID_3_)" stroke="#CCCCCC" cx="907" cy="120" rx="50" ry="28"/>
	<text transform="matrix(1 0 0 1 880.6563 122)" fill="#033656" font-family="'Arial-BoldMT'" font-size="12">Registrar</text>
</g>
<g id="_GlTIQAZaEDKDzpFPGy4Fzg">
	
		<linearGradient id="SVGID_4_" gradientUnits="userSpaceOnUse" x1="-555.8872" y1="2567.3086" x2="-555.8872" y2="2566.3086" gradientTransform="matrix(220 0 0 -80 123222.125 205956.6875)">
		<stop  offset="0" style="stop-color:#FFFFFF"/>
		<stop  offset="1" style="stop-color:#E5E5E5"/>
	</linearGradient>
	<ellipse fill="url(#SVGID_4_)" stroke="#CCCCCC" cx="927" cy="612" rx="110" ry="40"/>
	<text transform="matrix(1 0 0 1 881.6484 597)" fill="#033656" font-family="'Arial-BoldMT'" font-size="12">Buscar Paquete</text>
	<line fill="none" stroke="#CCCCCC" x1="850" y1="602" x2="1004" y2="602"/>
	<text transform="matrix(1 0 0 1 867.0146 624)" font-family="'ArialMT'" font-size="13">Seleccionar Paquete</text>
</g>
<g id="_pGsfwAZaEDKDzpFPGy4Fzg">
	
		<linearGradient id="SVGID_5_" gradientUnits="userSpaceOnUse" x1="-555.958" y1="2569.7988" x2="-555.958" y2="2568.3516" gradientTransform="matrix(212 0 0 -56 118784.125 144370.6875)">
		<stop  offset="0" style="stop-color:#FFFFFF"/>
		<stop  offset="1" style="stop-color:#E5E5E5"/>
	</linearGradient>
	<ellipse fill="url(#SVGID_5_)" stroke="#CCCCCC" cx="921" cy="502.5" rx="106" ry="40.5"/>
	<text transform="matrix(1 0 0 1 864.5 487)" fill="#033656" font-family="'Arial-BoldMT'" font-size="12">Observar Paquetes</text>
	<text transform="matrix(1 0 0 1 973.8887 487)" fill="#033656" font-family="'Arial-BoldMT'" font-size="13"> </text>
	<text transform="matrix(1 0 0 1 888.9902 500)" fill="#033656" font-family="'Arial-BoldMT'" font-size="12">Pendientes</text>
	<line fill="none" stroke="#CCCCCC" x1="847" y1="505" x2="994" y2="505"/>
	<text transform="matrix(1 0 0 1 861.0146 527)" font-family="'ArialMT'" font-size="13">Seleccionar Paquete</text>
</g>
<g id="_t72Q0AZaEDKDzpFPGy4Fzg">
	
		<linearGradient id="SVGID_6_" gradientUnits="userSpaceOnUse" x1="-555.958" y1="2568.1377" x2="-555.958" y2="2567.1377" gradientTransform="matrix(212 0 0 -70 118788.125 180461.6875)">
		<stop  offset="0" style="stop-color:#FFFFFF"/>
		<stop  offset="1" style="stop-color:#E5E5E5"/>
	</linearGradient>
	<ellipse fill="url(#SVGID_6_)" stroke="#CCCCCC" cx="925" cy="727" rx="106" ry="35"/>
	<text transform="matrix(1 0 0 1 862.5029 717)" fill="#033656" font-family="'Arial-BoldMT'" font-size="12">Observar Historial de</text>
	<text transform="matrix(1 0 0 1 983.8857 717)" fill="#033656" font-family="'Arial-BoldMT'" font-size="13"> </text>
	<text transform="matrix(1 0 0 1 898.3223 730)" fill="#033656" font-family="'Arial-BoldMT'" font-size="12">Paquetes</text>
	<line fill="none" stroke="#CCCCCC" x1="851" y1="735" x2="998" y2="735"/>
	<text transform="matrix(1 0 0 1 865.0146 757)" font-family="'ArialMT'" font-size="13">Seleccionar Paquete</text>
</g>
<g id="_6TkwkAZcEDKDzpFPGy4Fzg">
	
		<linearGradient id="SVGID_7_" gradientUnits="userSpaceOnUse" x1="-557.8428" y1="2569.7988" x2="-557.8428" y2="2568.7988" gradientTransform="matrix(108 0 0 -56 61171.0625 144720.6875)">
		<stop  offset="0" style="stop-color:#FFFFFF"/>
		<stop  offset="1" style="stop-color:#E5E5E5"/>
	</linearGradient>
	<ellipse fill="url(#SVGID_7_)" stroke="#CCCCCC" cx="924" cy="840" rx="54" ry="28"/>
	<text transform="matrix(1 0 0 1 883.3154 842)" fill="#033656" font-family="'Arial-BoldMT'" font-size="12">Crear Paquete</text>
</g>
<g id="_yBtLkAZdEDKDzpFPGy4Fzg">
	
		<linearGradient id="SVGID_8_" gradientUnits="userSpaceOnUse" x1="-556.6611" y1="2569.7988" x2="-556.6611" y2="2568.7988" gradientTransform="matrix(156 0 0 -56 87761.125 144090.6875)">
		<stop  offset="0" style="stop-color:#FFFFFF"/>
		<stop  offset="1" style="stop-color:#E5E5E5"/>
	</linearGradient>
	<ellipse fill="url(#SVGID_8_)" stroke="#CCCCCC" cx="922" cy="210" rx="78" ry="28"/>
	<text transform="matrix(1 0 0 1 857.6436 212)" fill="#033656" font-family="'Arial-BoldMT'" font-size="12">Recuperar Contraseña</text>
</g>
<g id="_2g4FkAZdEDKDzpFPGy4Fzg">
	
		<linearGradient id="SVGID_9_" gradientUnits="userSpaceOnUse" x1="-556.0757" y1="2568.1387" x2="-556.0757" y2="2567.1387" gradientTransform="matrix(200 0 0 -70 112477.125 180231.6875)">
		<stop  offset="0" style="stop-color:#FFFFFF"/>
		<stop  offset="1" style="stop-color:#E5E5E5"/>
	</linearGradient>
	<ellipse fill="url(#SVGID_9_)" stroke="#CCCCCC" cx="1262" cy="497" rx="100" ry="35"/>
	<text transform="matrix(1 0 0 1 1208.8398 493)" fill="#033656" font-family="'Arial-BoldMT'" font-size="12">Listar Detalles del</text>
	<text transform="matrix(1 0 0 1 1311.5488 493)" fill="#033656" font-family="'Arial-BoldMT'" font-size="13"> </text>
	<text transform="matrix(1 0 0 1 1238.6592 506)" fill="#033656" font-family="'Arial-BoldMT'" font-size="12">Paquete</text>
</g>
<g id="_18KZgAZeEDKDzpFPGy4Fzg">
	
		<linearGradient id="SVGID_10_" gradientUnits="userSpaceOnUse" x1="-555.3564" y1="2567.3086" x2="-555.3564" y2="2566.3086" gradientTransform="matrix(306 0 0 -80 170904 206306.6875)">
		<stop  offset="0" style="stop-color:#FFFFFF"/>
		<stop  offset="1" style="stop-color:#E5E5E5"/>
	</linearGradient>
	<ellipse fill="url(#SVGID_10_)" stroke="#CCCCCC" cx="965" cy="962" rx="153" ry="40"/>
	<text transform="matrix(1 0 0 1 908.5 947)" fill="#033656" font-family="'Arial-BoldMT'" font-size="12">Observar Paquetes</text>
	<text transform="matrix(1 0 0 1 1017.8887 947)" fill="#033656" font-family="'Arial-BoldMT'" font-size="13"> </text>
	<text transform="matrix(1 0 0 1 889.3115 960)" fill="#033656" font-family="'Arial-BoldMT'" font-size="12">Pendientes Por Recepcion</text>
	<line fill="none" stroke="#CCCCCC" x1="858" y1="965" x2="1071" y2="965"/>
	<text transform="matrix(1 0 0 1 905.0146 987)" font-family="'ArialMT'" font-size="13">Seleccionar Paquete</text>
</g>
<g id="_H-IKIAZfEDKDzpFPGy4Fzg">
	
		<linearGradient id="SVGID_11_" gradientUnits="userSpaceOnUse" x1="-556.332" y1="2569.7979" x2="-556.332" y2="2568.5928" gradientTransform="matrix(178 0 0 -56 99624.125 145040.6875)">
		<stop  offset="0" style="stop-color:#FFFFFF"/>
		<stop  offset="1" style="stop-color:#E5E5E5"/>
	</linearGradient>
	<ellipse fill="url(#SVGID_11_)" stroke="#CCCCCC" cx="597" cy="1165.75" rx="89" ry="33.75"/>
	<text transform="matrix(1 0 0 1 522.3105 1157)" fill="#033656" font-family="'Arial-BoldMT'" font-size="12">Buscar Cualquier Paquete</text>
	<line fill="none" stroke="#CCCCCC" x1="535" y1="1162" x2="659" y2="1162"/>
	<text transform="matrix(1 0 0 1 537.0146 1184)" font-family="'ArialMT'" font-size="13">Seleccionar Paquete</text>
</g>
<g id="_K7LxIAZfEDKDzpFPGy4Fzg">
	
		<linearGradient id="SVGID_12_" gradientUnits="userSpaceOnUse" x1="-557.5171" y1="2569.7979" x2="-557.5171" y2="2568.7979" gradientTransform="matrix(118 0 0 -56 66712.0625 145050.6875)">
		<stop  offset="0" style="stop-color:#FFFFFF"/>
		<stop  offset="1" style="stop-color:#E5E5E5"/>
	</linearGradient>
	<ellipse fill="url(#SVGID_12_)" stroke="#CCCCCC" cx="925" cy="1170" rx="59" ry="28"/>
	<text transform="matrix(1 0 0 1 879.9854 1172)" fill="#033656" font-family="'Arial-BoldMT'" font-size="12">Cambiar estado</text>
</g>
<g id="_com1IAZfEDKDzpFPGy4Fzg">
	
		<linearGradient id="SVGID_13_" gradientUnits="userSpaceOnUse" x1="-555.9766" y1="2568.1387" x2="-555.9766" y2="2567.1387" gradientTransform="matrix(210 0 0 -70 117357.125 181256.6875)">
		<stop  offset="0" style="stop-color:#FFFFFF"/>
		<stop  offset="1" style="stop-color:#E5E5E5"/>
	</linearGradient>
	<ellipse fill="url(#SVGID_13_)" stroke="#CCCCCC" cx="602" cy="1522" rx="105" ry="35"/>
	<text transform="matrix(1 0 0 1 557.0938 1518)" fill="#033656" font-family="'Arial-BoldMT'" font-size="12">Cambiar Tarifas</text>
</g>
<g id="_bSGqUAZhEDKDzpFPGy4Fzg">
	
		<linearGradient id="SVGID_14_" gradientUnits="userSpaceOnUse" x1="-555.4312" y1="2566.6631" x2="-555.4312" y2="2565.6631" gradientTransform="matrix(290 0 0 -90 161677.125 231171.6875)">
		<stop  offset="0" style="stop-color:#FFFFFF"/>
		<stop  offset="1" style="stop-color:#E5E5E5"/>
	</linearGradient>
	<ellipse fill="url(#SVGID_14_)" stroke="#CCCCCC" cx="602" cy="217" rx="145" ry="45"/>
	<text transform="matrix(1 0 0 1 528.5049 205)" fill="#033656" font-family="'Arial-BoldMT'" font-size="12">Observar Información De</text>
	<text transform="matrix(1 0 0 1 671.8838 205)" fill="#033656" font-family="'Arial-BoldMT'" font-size="13"> </text>
	<text transform="matrix(1 0 0 1 564.3271 218)" fill="#033656" font-family="'Arial-BoldMT'" font-size="12">La Compañia</text>
</g>
<g id="_k5eNMAZhEDKDzpFPGy4Fzg">
	
		<linearGradient id="SVGID_15_" gradientUnits="userSpaceOnUse" x1="-555.958" y1="2568.1387" x2="-555.958" y2="2567.1387" gradientTransform="matrix(212 0 0 -70 118462.125 180051.6875)">
		<stop  offset="0" style="stop-color:#FFFFFF"/>
		<stop  offset="1" style="stop-color:#E5E5E5"/>
	</linearGradient>
	<ellipse fill="url(#SVGID_15_)" stroke="#CCCCCC" cx="599" cy="317" rx="106" ry="35"/>
	<text transform="matrix(1 0 0 1 529.1699 313)" fill="#033656" font-family="'Arial-BoldMT'" font-size="12">Manejar Calculadora De</text>
	<text transform="matrix(1 0 0 1 665.2188 313)" fill="#033656" font-family="'Arial-BoldMT'" font-size="13"> </text>
	<text transform="matrix(1 0 0 1 579.3271 326)" fill="#033656" font-family="'Arial-BoldMT'" font-size="12">Envíos</text>
</g>
<g id="_HAL-YAZjEDKDzpFPGy4Fzg">
	
		<linearGradient id="SVGID_16_" gradientUnits="userSpaceOnUse" x1="-557.3477" y1="2569.7979" x2="-557.3477" y2="2568.7979" gradientTransform="matrix(124 0 0 -56 69711.0625 144280.6875)">
		<stop  offset="0" style="stop-color:#FFFFFF"/>
		<stop  offset="1" style="stop-color:#E5E5E5"/>
	</linearGradient>
	<ellipse fill="url(#SVGID_16_)" stroke="#CCCCCC" cx="600" cy="400" rx="62" ry="28"/>
	<text transform="matrix(1 0 0 1 552.7529 402)" fill="#033656" font-family="'Arial-BoldMT'" font-size="12">Observar Tarifas</text>
</g>
<g id="_M7h7cAZjEDKDzpFPGy4Fzg">
	<ellipse fill="#FFFFFF" stroke="#000000" stroke-width="1.5" cx="97" cy="242" rx="10" ry="10"/>
	<line fill="none" stroke="#000000" stroke-width="1.5" x1="97" y1="252" x2="97" y2="286"/>
	<line fill="none" stroke="#000000" stroke-width="1.5" x1="97" y1="286" x2="110" y2="307"/>
	<line fill="none" stroke="#000000" stroke-width="1.5" x1="97" y1="286" x2="84" y2="307"/>
	<line fill="none" stroke="#000000" stroke-width="1.5" x1="110" y1="269" x2="84" y2="269"/>
	<text transform="matrix(1 0 0 1 74.6025 322)" font-family="'ArialMT'" font-size="13">Usuario</text>
</g>
<g id="_cgnkgAZkEDKDzpFPGy4Fzg">
	
		<linearGradient id="SVGID_17_" gradientUnits="userSpaceOnUse" x1="-556.7671" y1="2566.1465" x2="-556.7671" y2="2565.1465" gradientTransform="matrix(150 0 0 -100 84132.0625 257966.6875)">
		<stop  offset="0" style="stop-color:#FFFFFF"/>
		<stop  offset="1" style="stop-color:#E5E5E5"/>
	</linearGradient>
	<ellipse fill="url(#SVGID_17_)" stroke="#CCCCCC" cx="617" cy="1402" rx="75" ry="50"/>
	<text transform="matrix(1 0 0 1 572.6504 1379)" fill="#033656" font-family="'Arial-BoldMT'" font-size="12">Buscar Usuario</text>
	<line fill="none" stroke="#CCCCCC" x1="565" y1="1384" x2="669" y2="1384"/>
	<text transform="matrix(1 0 0 1 558.833 1406)" font-family="'ArialMT'" font-size="13">Seleccionar Usuario</text>
	<text transform="matrix(1 0 0 1 592.793 1424)" font-family="'ArialMT'" font-size="13">ExtPoint</text>
</g>
<g id="_prSPAAZkEDKDzpFPGy4Fzg">
	
		<linearGradient id="SVGID_18_" gradientUnits="userSpaceOnUse" x1="-556.1846" y1="2568.1387" x2="-556.1846" y2="2567.1387" gradientTransform="matrix(190 0 0 -70 106717.125 181136.6875)">
		<stop  offset="0" style="stop-color:#FFFFFF"/>
		<stop  offset="1" style="stop-color:#E5E5E5"/>
	</linearGradient>
	<ellipse fill="url(#SVGID_18_)" stroke="#CCCCCC" cx="1042" cy="1402" rx="95" ry="35"/>
	<text transform="matrix(1 0 0 1 988.8398 1398)" fill="#033656" font-family="'Arial-BoldMT'" font-size="12">Listar Detalles del</text>
	<text transform="matrix(1 0 0 1 1091.5488 1398)" fill="#033656" font-family="'Arial-BoldMT'" font-size="13"> </text>
	<text transform="matrix(1 0 0 1 1019.6611 1411)" fill="#033656" font-family="'Arial-BoldMT'" font-size="12">Usuario</text>
</g>
<g id="_T6fdIAmOEDKiZ5iC2dK3TA">
	<ellipse fill="#FFFFFF" stroke="#000000" stroke-width="1.5" cx="232" cy="647" rx="10" ry="10"/>
	<line fill="none" stroke="#000000" stroke-width="1.5" x1="232" y1="657" x2="232" y2="691"/>
	<line fill="none" stroke="#000000" stroke-width="1.5" x1="232" y1="691" x2="245" y2="712"/>
	<line fill="none" stroke="#000000" stroke-width="1.5" x1="232" y1="691" x2="219" y2="712"/>
	<line fill="none" stroke="#000000" stroke-width="1.5" x1="245" y1="674" x2="219" y2="674"/>
	<text transform="matrix(1 0 0 1 204.54 727)" font-family="'ArialMT'" font-size="13">Operador</text>
</g>
<g id="_Dsc2YgZbEDKDzpFPGy4Fzg">
	<line fill="none" stroke="#000000" x1="297" y1="500" x2="815" y2="491"/>
</g>
<g id="_D6hHkAZbEDKDzpFPGy4Fzg">
	<line fill="none" stroke="#000000" x1="297" y1="511" x2="817" y2="594"/>
</g>
<g id="_EJgl0gZbEDKDzpFPGy4Fzg">
	<line fill="none" stroke="#000000" x1="297" y1="520" x2="819" y2="692"/>
</g>
<g id="_z1DYgAZdEDKDzpFPGy4Fzg">
	<line fill="none" stroke="#000000" stroke-dasharray="10,5" x1="844" y1="183" x2="720" y2="142"/>
	<g transform="translate(720,142)">
		<g transform="rotate(-72)">
			<polyline fill="none" stroke="#000000" points="-4,8 0,0 4,8 			"/>
		</g>
	</g>
</g>
<g id="_53BiAAZdEDKDzpFPGy4Fzg">
	<line fill="none" stroke="#000000" stroke-dasharray="10,5" x1="1162" y1="494" x2="1026" y2="492"/>
	<g transform="translate(1026,492)">
		<g transform="rotate(-89)">
			<polyline fill="none" stroke="#000000" points="-4,8 0,0 3.999,8 			"/>
		</g>
	</g>
</g>
<g id="_7sXTAAZdEDKDzpFPGy4Fzg">
	<line fill="none" stroke="#000000" stroke-dasharray="10,5" x1="1257" y1="532" x2="1232" y2="732"/>
</g>
<g id="_-OppkAZdEDKDzpFPGy4Fzg">
	<line fill="none" stroke="#000000" stroke-dasharray="10,5" x1="1253" y1="532" x2="1232" y2="612"/>
</g>
<g id="_MX4YoAZfEDKDzpFPGy4Fzg">
	<line fill="none" stroke="#000000" stroke-dasharray="10,5" x1="1262" y1="532" x2="1262" y2="1302"/>
</g>
<g id="_OMdUoAZfEDKDzpFPGy4Fzg">
	<line fill="none" stroke="#000000" stroke-dasharray="10,5" x1="866" y1="1168" x2="686" y2="1162"/>
	<g transform="translate(686,1162)">
		<g transform="rotate(-88)">
			<polyline fill="none" stroke="#000000" points="-4,8 0,0 4,8 			"/>
		</g>
	</g>
</g>
<g id="_eHrbMQZfEDKDzpFPGy4Fzg">
	<line fill="none" stroke="#000000" x1="237" y1="912" x2="272" y2="1487"/>
</g>
<g id="_AGvsQAZhEDKDzpFPGy4Fzg">
	<line fill="none" stroke="#000000" stroke-dasharray="10,5" x1="752" y1="110" x2="857" y2="117"/>
	<g transform="translate(857,117)">
		<g transform="rotate(94)">
			<polyline fill="none" stroke="#000000" points="-4,8 0,0 4,8 			"/>
		</g>
	</g>
</g>
<g id="_Gbj5QAZhEDKDzpFPGy4Fzg">
	<line fill="none" stroke="#000000" stroke-dasharray="10,5" x1="930" y1="1142" x2="957" y2="1002"/>
	<g transform="translate(957,1002)">
		<g transform="rotate(11)">
			<polyline fill="none" stroke="#000000" points="-4,8 0,0 4,8 			"/>
		</g>
	</g>
</g>
<g id="_y2mkggZjEDKDzpFPGy4Fzg">
	<line fill="none" stroke="#000000" x1="147" y1="259" x2="486" y2="142"/>
</g>
<g id="_zPeXgAZjEDKDzpFPGy4Fzg">
	<line fill="none" stroke="#000000" x1="147" y1="271" x2="457" y2="234"/>
</g>
<g id="_zqUgcgZjEDKDzpFPGy4Fzg">
	<line fill="none" stroke="#000000" x1="147" y1="280" x2="493" y2="308"/>
</g>
<g id="_3MiC8AZjEDKDzpFPGy4Fzg">
	<line fill="none" stroke="#000000" x1="182" y1="452" x2="182" y2="452"/>
</g>
<g id="_4R9Z8AZjEDKDzpFPGy4Fzg">
	<line fill="none" stroke="#000000" x1="182" y1="843" x2="92" y2="812"/>
</g>
<g id="_XJXzAQZkEDKDzpFPGy4Fzg">
	<line fill="none" stroke="#000000" x1="147" y1="289" x2="538" y2="384"/>
</g>
<g id="_MX4YoAZfEDKDzpFPGy4Fzg_1_">
	<line fill="none" stroke="#000000" stroke-dasharray="10,5" x1="1262" y1="1302" x2="632" y2="1302"/>
</g>
<g id="_7sXTAAZdEDKDzpFPGy4Fzg_1_">
	<line fill="none" stroke="#000000" stroke-dasharray="10,5" x1="1232" y1="732" x2="1030" y2="729"/>
	<g transform="translate(1030,729)">
		<g transform="rotate(-89)">
			<polyline fill="none" stroke="#000000" points="-4,8 0,0 3.999,8 			"/>
		</g>
	</g>
</g>
<g id="_-OppkAZdEDKDzpFPGy4Fzg_1_">
	<line fill="none" stroke="#000000" stroke-dasharray="10,5" x1="1232" y1="612" x2="1037" y2="612"/>
	<g transform="translate(1037,612)">
		<g transform="rotate(-90)">
			<polyline fill="none" stroke="#000000" points="-4,8 0,0 4,8 			"/>
		</g>
	</g>
</g>
<g id="_MX4YoAZfEDKDzpFPGy4Fzg_2_">
	<line fill="none" stroke="#000000" stroke-dasharray="10,5" x1="632" y1="1302" x2="599.239" y2="1203.798"/>
	<g transform="translate(603,1187)">
		<g transform="rotate(-14)">
			<polyline fill="none" stroke="#000000" points="-11.648,22.092 -7.713,15.39 -2.741,22.609 			"/>
		</g>
	</g>
</g>
<g id="_6_d04QmLEDKiZ5iC2dK3TA">
	<line fill="none" stroke="#000000" x1="246" y1="912" x2="362" y2="1397"/>
</g>
<g id="_YH4VgAmMEDKiZ5iC2dK3TA">
	<line fill="none" stroke="#000000" stroke-dasharray="10,5" x1="947" y1="1402" x2="692" y2="1402"/>
	<g transform="translate(692,1402)">
		<g transform="rotate(-90)">
			<polyline fill="none" stroke="#000000" points="-4,8 0,0 4,8 			"/>
		</g>
	</g>
</g>
<g id="_3MiC8AZjEDKDzpFPGy4Fzg_1_">
	<line fill="none" stroke="#000000" x1="137" y1="362" x2="137" y2="362"/>
</g>
<g id="_3MiC8AZjEDKDzpFPGy4Fzg_2_">
	<line fill="none" stroke="#000000" x1="137" y1="362" x2="137" y2="362"/>
</g>
<g id="_eHrbMQZfEDKDzpFPGy4Fzg_1_">
	<line fill="none" stroke="#000000" x1="272" y1="1487" x2="497" y2="1511"/>
</g>
<g id="_6_d04QmLEDKiZ5iC2dK3TA_1_">
	<line fill="none" stroke="#000000" x1="362" y1="1397" x2="542" y2="1400"/>
</g>
<g id="_4R9Z8AZjEDKDzpFPGy4Fzg_1_">
	<line fill="none" stroke="#000000" x1="92" y1="812" x2="96" y2="327"/>
	<g transform="translate(96,327)">
		<g transform="rotate(0)">
			<polygon fill="#FFFFFF" stroke="#000000" points="-6,10 0,0 6,10 			"/>
		</g>
	</g>
</g>
<g id="_e0MxoAmOEDKiZ5iC2dK3TA">
	<line fill="none" stroke="#000000" x1="198" y1="632" x2="137" y2="542"/>
</g>
<g id="_e0MxoAmOEDKiZ5iC2dK3TA_1_">
	<line fill="none" stroke="#000000" x1="137" y1="542" x2="104" y2="327"/>
	<g transform="translate(104,327)">
		<g transform="rotate(-9)">
			<polygon fill="#FFFFFF" stroke="#000000" points="-6,10 0,0 6,10 			"/>
		</g>
	</g>
</g>
<g id="_3MiC8AZjEDKDzpFPGy4Fzg_3_">
	<line fill="none" stroke="#000000" x1="182" y1="452" x2="182" y2="452"/>
</g>
<g id="_3MiC8AZjEDKDzpFPGy4Fzg_4_">
	<line fill="none" stroke="#000000" x1="182" y1="452" x2="137" y2="362"/>
</g>
<g id="_3MiC8AZjEDKDzpFPGy4Fzg_5_">
	<line fill="none" stroke="#000000" x1="137" y1="362" x2="120" y2="327"/>
	<g transform="translate(120,327)">
		<g transform="rotate(-26)">
			<polygon fill="#FFFFFF" stroke="#000000" points="-6,10.001 0,0 6,10 			"/>
		</g>
	</g>
</g>
<g id="_nsXsMAmOEDKiZ5iC2dK3TA">
	<line fill="none" stroke="#000000" x1="282" y1="693" x2="870" y2="827"/>
</g>
<g id="_oe8YoAmOEDKiZ5iC2dK3TA">
	<line fill="none" stroke="#000000" x1="282" y1="701" x2="860" y2="922"/>
</g>
<g id="_pBaMggmOEDKiZ5iC2dK3TA">
	<line fill="none" stroke="#000000" x1="270" y1="732" x2="575" y2="1132"/>
</g>
<text transform="matrix(1 0 0 1 794 163.0005)" font-family="'ArialMT'" font-size="13">« extend »</text>
<text transform="matrix(1 0 0 1 1068 481.0005)" font-family="'ArialMT'" font-size="13">« extend »</text>
<text transform="matrix(1 0 0 1 1068 722.0005)" font-family="'ArialMT'" font-size="13">« extend »</text>
<text transform="matrix(1 0 0 1 1074 602.0005)" font-family="'ArialMT'" font-size="13">« extend »</text>
<text transform="matrix(1 0 0 1 1197 902.0005)" font-family="'ArialMT'" font-size="13">« extend »</text>
<text transform="matrix(1 0 0 1 750 1153.0005)" font-family="'ArialMT'" font-size="13">« extend »</text>
<text transform="matrix(1 0 0 1 779 102.0005)" font-family="'ArialMT'" font-size="13">« include »</text>
<text transform="matrix(1 0 0 1 957 1080.9995)" font-family="'ArialMT'" font-size="13">« extend »</text>
<text transform="matrix(1 0 0 1 794 1390.0005)" font-family="'ArialMT'" font-size="13">« extend »</text>
</svg>
